<?xml version="1.0" encoding="utf-8"?>
<!-- Generator: Adobe Illustrator 25.0.0, SVG Export Plug-In . SVG Version: 6.00 Build 0)  -->
<svg version="1.1" id="Layer_1" xmlns="http://www.w3.org/2000/svg" xmlns:xlink="http://www.w3.org/1999/xlink" x="0px" y="0px"
	 viewBox="0 0 1920 1080" style="enable-background:new 0 0 1920 1080;" xml:space="preserve">
<style type="text/css">
	.st0{fill:url(#SVGID_1_);}
	.st1{fill:url(#SVGID_2_);}
	.st2{fill:url(#SVGID_3_);}
	.st3{fill:url(#SVGID_4_);}
	.st4{fill:url(#SVGID_5_);}
	.st5{fill:url(#SVGID_6_);}
	.st6{fill:url(#SVGID_7_);}
	.st7{fill:url(#SVGID_8_);}
	.st8{fill:url(#SVGID_9_);}
	.st9{fill:url(#SVGID_10_);}
	.st10{fill:url(#SVGID_11_);}
	.st11{fill:url(#SVGID_12_);}
	.st12{fill:url(#SVGID_13_);}
	.st13{fill:url(#SVGID_14_);}
	.st14{fill:url(#SVGID_15_);}
	.st15{fill:url(#SVGID_16_);}
</style>
<linearGradient id="SVGID_1_" gradientUnits="userSpaceOnUse" x1="430.3" y1="910.37" x2="430.3" y2="190.37" gradientTransform="matrix(1 0 0 -1 0 1080)">
	<stop  offset="0" style="stop-color:#FFD245"/>
	<stop  offset="1" style="stop-color:#E70600"/>
</linearGradient>
<path class="st0" d="M430.3,169.6c3,60,4.5,120,5.6,180c0.7,30,0.8,60,1.2,90l0.4,90l-0.4,90c-0.4,30-0.5,60-1.2,90
	c-1,60-2.6,120-5.6,180c-3-60-4.6-120-5.6-180c-0.7-30-0.8-60-1.2-90l-0.4-90l0.4-90c0.4-30,0.5-60,1.2-90
	C425.8,289.6,427.3,229.6,430.3,169.6z"/>
<linearGradient id="SVGID_2_" gradientUnits="userSpaceOnUse" x1="456.085" y1="256.44" x2="456.085" y2="775.64" gradientTransform="matrix(1 0 0 -1 0 1080)">
	<stop  offset="0" style="stop-color:#99FF17"/>
	<stop  offset="1" style="stop-color:#0B5100"/>
</linearGradient>
<path class="st1" d="M710.6,309.4c-40.3,44.6-81.6,88-123.3,131.2c-20.7,21.7-41.8,43-62.8,64.5L461.2,569l-63.9,63.4
	c-21.5,20.9-42.8,42-64.5,62.8c-43.2,41.7-86.7,83-131.2,123.3c40.3-44.5,81.6-88.1,123.3-131.2c20.7-21.7,41.9-43,62.8-64.5
	l63.4-63.9l63.9-63.4c21.5-20.9,42.8-42,64.5-62.8C622.6,391.1,666.1,349.8,710.6,309.4z"/>
<linearGradient id="SVGID_3_" gradientUnits="userSpaceOnUse" x1="790.24" y1="550.4249" x2="70.24" y2="550.4249" gradientTransform="matrix(1 0 0 -1 0 1080)">
	<stop  offset="0" style="stop-color:#FFD245"/>
	<stop  offset="1" style="stop-color:#E70600"/>
</linearGradient>
<path class="st2" d="M790.2,529.6c-60,3-120,4.5-180,5.6c-30,0.7-60,0.8-90,1.2l-90,0.4l-90-0.4c-30-0.4-60-0.5-90-1.2
	c-60-1.1-120-2.6-180-5.6c60-3,120-4.6,180-5.6c30-0.7,60-0.8,90-1.2l90-0.4l90,0.4c30,0.4,60,0.5,90,1.2
	C670.3,525,730.2,526.6,790.2,529.6z"/>
<linearGradient id="SVGID_4_" gradientUnits="userSpaceOnUse" x1="603.9807" y1="672.6298" x2="1617.2705" y2="479.8484" gradientTransform="matrix(1 0 0 -1 0 1080)">
	<stop  offset="0" style="stop-color:#FFD245"/>
	<stop  offset="0.81" style="stop-color:#E31E25"/>
</linearGradient>
<path class="st3" d="M1011,514.4h-13.4l-8.1-6.6c-19,11.4-44.3,9.3-57.7-4.2c-7.4-7.4-12.7-17.1-12.7-28c0.2-10.7,4.8-20.9,12.7-28
	c17.6-15.7,44.1-15.7,61.6,0c7.9,7.2,12.5,17.3,12.7,28c-0.1,9-3.4,17.6-9.3,24.3L1011,512L1011,514.4z M984.6,455.5
	c-6-5.5-13.8-8.5-22-8.4c-8.1,0-15.9,3-22,8.4c-11.1,9.7-12.3,26.7-2.5,37.8c0.8,0.9,1.6,1.7,2.5,2.5c10.8,9.7,26.6,11.5,39.3,4.3
	l-23.7-19.2h17.1l14.5,12c3.8-5,5.9-11.1,5.9-17.3C993.6,467.9,990.3,460.6,984.6,455.5L984.6,455.5z"/>
<linearGradient id="SVGID_5_" gradientUnits="userSpaceOnUse" x1="608.9525" y1="698.763" x2="1622.2424" y2="505.9816" gradientTransform="matrix(1 0 0 -1 0 1080)">
	<stop  offset="0" style="stop-color:#FFD245"/>
	<stop  offset="0.81" style="stop-color:#E31E25"/>
</linearGradient>
<path class="st4" d="M1061.7,491.1v-54.3h12.5v54.4c0,8.6,10.1,12.8,19.2,12.8s19-4.3,19-12.9v-54.3h12.5v54.4
	c0,15.8-16.8,24-31.5,24C1078.3,515.2,1061.7,507,1061.7,491.1z"/>
<linearGradient id="SVGID_6_" gradientUnits="userSpaceOnUse" x1="612.2037" y1="715.8518" x2="1625.4937" y2="523.0704" gradientTransform="matrix(1 0 0 -1 0 1080)">
	<stop  offset="0" style="stop-color:#FFD245"/>
	<stop  offset="0.81" style="stop-color:#E31E25"/>
</linearGradient>
<path class="st5" d="M1227.9,491.6h-30.6c-3.3,7.1-7.6,16.4-10.3,22.9h-13.3l34.3-78.7h9l34.3,78.7h-13.2L1227.9,491.6z M1201.9,481
	h21.2l-10.5-27.4L1201.9,481z"/>
<linearGradient id="SVGID_7_" gradientUnits="userSpaceOnUse" x1="616.4919" y1="738.3914" x2="1629.7819" y2="545.61" gradientTransform="matrix(1 0 0 -1 0 1080)">
	<stop  offset="0" style="stop-color:#FFD245"/>
	<stop  offset="0.81" style="stop-color:#E31E25"/>
</linearGradient>
<path class="st6" d="M1333.6,436.8c27.9,0,42,19.4,42,38.9c0,19.4-14,38.8-42,38.8H1303v-77.6H1333.6z M1333.6,503.2
	c19.8,0,29.8-13.8,29.8-27.5c0-13.8-10-27.7-29.8-27.7h-18.3v55.2L1333.6,503.2z"/>
<linearGradient id="SVGID_8_" gradientUnits="userSpaceOnUse" x1="620.9195" y1="761.6633" x2="1634.2095" y2="568.882" gradientTransform="matrix(1 0 0 -1 0 1080)">
	<stop  offset="0" style="stop-color:#FFD245"/>
	<stop  offset="0.81" style="stop-color:#E31E25"/>
</linearGradient>
<path class="st7" d="M1446.7,475h14.4c10.4,0,15.5-6.8,15.5-13.6c0-6.8-5.1-13.4-15.5-13.4h-18.9v66.4H1430v-77.7h31.2
	c18.5,0,27.8,12.5,27.8,24.8c0,11-7.4,21.4-22.1,23.8l27,29.2h-16l-31.2-34.1V475z"/>
<linearGradient id="SVGID_9_" gradientUnits="userSpaceOnUse" x1="624.8074" y1="782.0989" x2="1638.0974" y2="589.3174" gradientTransform="matrix(1 0 0 -1 0 1080)">
	<stop  offset="0" style="stop-color:#FFD245"/>
	<stop  offset="0.81" style="stop-color:#E31E25"/>
</linearGradient>
<path class="st8" d="M1588.7,491.6h-30.6c-3.3,7.1-7.6,16.4-10.3,22.9h-13.3l34.3-78.7h9l34.3,78.7H1599L1588.7,491.6z M1562.7,481
	h21.2l-10.5-27.5L1562.7,481z"/>
<linearGradient id="SVGID_10_" gradientUnits="userSpaceOnUse" x1="629.4916" y1="806.7197" x2="1642.7815" y2="613.9383" gradientTransform="matrix(1 0 0 -1 0 1080)">
	<stop  offset="0" style="stop-color:#FFD245"/>
	<stop  offset="0.81" style="stop-color:#E31E25"/>
</linearGradient>
<path class="st9" d="M1661.1,514.4v-77.9l9.5,0.1l41.6,54.7v-54.7h12.2v77.7h-9.8l-41.2-54.3v54.3H1661.1z"/>
<linearGradient id="SVGID_11_" gradientUnits="userSpaceOnUse" x1="633.9434" y1="830.1191" x2="1647.2334" y2="637.3378" gradientTransform="matrix(1 0 0 -1 0 1080)">
	<stop  offset="0" style="stop-color:#FFD245"/>
	<stop  offset="0.81" style="stop-color:#E31E25"/>
</linearGradient>
<path class="st10" d="M1801.9,514.8V448H1776v-11.3h63.9V448h-25.7v66.7L1801.9,514.8z"/>
<linearGradient id="SVGID_12_" gradientUnits="userSpaceOnUse" x1="804.4653" y1="536.6865" x2="1329.2046" y2="364.6866" gradientTransform="matrix(1 0 0 -1 0 1080)">
	<stop  offset="0" style="stop-color:#A4CD39"/>
	<stop  offset="1" style="stop-color:#225127"/>
</linearGradient>
<path class="st11" d="M932.4,571.8c6-5.6,13.9-8.7,22.1-8.6c14.6,0,26.1,8.3,29.8,21.5h-9.1c-3.4-8.7-11.2-13.1-20.7-13.1
	c-5.8,0-11.5,2.2-15.7,6.2c-8.2,7.5-8.8,20.2-1.3,28.5c0.4,0.5,0.9,0.9,1.3,1.3c4.2,4,9.9,6.2,15.7,6.2c9.7,0,17.9-5.1,21.2-13.9h9
	c-3.6,13.2-15.3,22.2-30.2,22.2c-8.2,0.1-16.1-3-22.1-8.6c-11.5-10.6-12.2-28.4-1.7-39.9C931.3,572.9,931.9,572.3,932.4,571.8
	L932.4,571.8z"/>
<linearGradient id="SVGID_13_" gradientUnits="userSpaceOnUse" x1="812.6549" y1="561.6714" x2="1337.3942" y2="389.6715" gradientTransform="matrix(1 0 0 -1 0 1080)">
	<stop  offset="0" style="stop-color:#A4CD39"/>
	<stop  offset="1" style="stop-color:#225127"/>
</linearGradient>
<path class="st12" d="M1037.5,592.1h10.9c7.8,0,11.6-5.1,11.6-10.1s-3.8-10.1-11.6-10.1h-14.2v49.7h-9.2v-58.2h23.4
	c13.9,0,20.8,9.3,20.8,18.5c0,8.2-5.6,16-16.5,17.8l20.3,21.8h-12.1l-23.4-25.5V592.1z"/>
<linearGradient id="SVGID_14_" gradientUnits="userSpaceOnUse" x1="822.433" y1="591.5024" x2="1347.1722" y2="419.5025" gradientTransform="matrix(1 0 0 -1 0 1080)">
	<stop  offset="0" style="stop-color:#A4CD39"/>
	<stop  offset="1" style="stop-color:#225127"/>
</linearGradient>
<path class="st13" d="M1116.6,571.4c13.1-11.7,33-11.7,46.1,0c11.6,10.2,12.7,28,2.5,39.6c-0.8,0.9-1.6,1.7-2.5,2.5
	c-13.1,11.8-33,11.8-46.1,0c-11.6-10.2-12.7-28-2.5-39.6C1114.9,573.1,1115.7,572.2,1116.6,571.4z M1156.2,577.4
	c-4.5-4.1-10.4-6.3-16.5-6.3c-6.1,0-11.9,2.2-16.4,6.3c-8.3,7.2-9.2,19.8-2,28.1c0.6,0.7,1.3,1.4,2,2c4.5,4.1,10.3,6.3,16.4,6.3
	c6.1,0,12-2.2,16.5-6.3c8.3-7.4,9.1-20.1,1.7-28.4C1157.3,578.5,1156.8,578,1156.2,577.4z"/>
<linearGradient id="SVGID_15_" gradientUnits="userSpaceOnUse" x1="831.7615" y1="619.9618" x2="1356.5007" y2="447.9619" gradientTransform="matrix(1 0 0 -1 0 1080)">
	<stop  offset="0" style="stop-color:#A4CD39"/>
	<stop  offset="1" style="stop-color:#225127"/>
</linearGradient>
<path class="st14" d="M1248.5,578.4c-1.3-5.2-7.5-7.5-13.1-7.4c-4.3,0-9.1,1.4-11.6,4.4c-1.2,1.5-1.8,3.5-1.6,5.4
	c0.5,6,7.7,6.7,14.5,7.3c8.8,1,19.6,3.1,22.1,12.5c0.3,1.3,0.4,2.5,0.5,3.8c0,11.2-12.2,17.7-23.8,17.7c-9.9,0-21.8-5.3-23-15.7
	l-0.1-1.6l9.3-0.2l0.1,1.2v-0.3c0.6,5.4,7.8,8.2,13.8,8.2c6.8,0,14.3-3.5,14.3-9.5c0-0.7-0.1-1.3-0.3-2c-1.1-4.4-7.7-5.2-14-5.7
	c-10-0.9-21.7-2.9-22.7-15v0.1c-0.4-4,0.9-8,3.5-11.1c4.3-5.1,12-7.8,19.4-7.8c9.9,0,20.1,4.7,21.8,15.3L1248.5,578.4z"/>
<linearGradient id="SVGID_16_" gradientUnits="userSpaceOnUse" x1="840.1268" y1="645.483" x2="1364.8661" y2="473.4831" gradientTransform="matrix(1 0 0 -1 0 1080)">
	<stop  offset="0" style="stop-color:#A4CD39"/>
	<stop  offset="1" style="stop-color:#225127"/>
</linearGradient>
<path class="st15" d="M1334.8,578.4c-1.3-5.2-7.5-7.5-13.1-7.4c-4.3,0-9,1.4-11.6,4.4c-1.2,1.5-1.8,3.5-1.6,5.4
	c0.5,6,7.7,6.7,14.5,7.3c8.8,1,19.6,3.1,22.1,12.5c0.3,1.3,0.4,2.5,0.5,3.8c0,11.2-12.2,17.7-23.8,17.7c-9.9,0-21.8-5.3-23-15.7
	l-0.1-1.6l9.3-0.2l0.1,1.2v-0.3c0.6,5.4,7.8,8.2,13.8,8.2c6.9,0,14.3-3.5,14.3-9.5c0-0.7-0.1-1.3-0.3-2c-1.1-4.4-7.7-5.2-14-5.7
	c-10-0.9-21.7-2.9-22.7-15v0.1c-0.4-4,0.9-8,3.5-11.1c4.3-5.1,12-7.8,19.4-7.8c9.9,0,20.1,4.7,21.8,15.3L1334.8,578.4z"/>
</svg>
