<?xml version="1.0" encoding="utf-8"?>
<!-- Generator: Adobe Illustrator 25.0.0, SVG Export Plug-In . SVG Version: 6.00 Build 0)  -->
<svg version="1.1" id="Layer_1" xmlns="http://www.w3.org/2000/svg" xmlns:xlink="http://www.w3.org/1999/xlink" x="0px" y="0px"
	 viewBox="0 0 1462.1 296.3" style="enable-background:new 0 0 1462.1 296.3;" xml:space="preserve">
<style type="text/css">
	.st0{fill:#FFFFFF;}
</style>
<g id="Layer_2_1_">
	<g id="Layer_1-2">
		<path class="st0" d="M145.9,125h-21.3l-12.8-10.4c-30.2,18.2-70.3,14.8-91.6-6.7C8.3,96.1,0,80.8,0,63.3s7.9-33.1,20.1-44.6
			C33.5,6.6,51-0.1,69,0c18.1-0.1,35.6,6.6,49,18.7c12.2,11.5,20.1,27.1,20.1,44.6c0,14.6-5.6,27.9-14.7,38.6l22.5,19.2L145.9,125z
			 M103.9,31.4C94.4,22.7,81.9,17.9,69,18c-12.9,0-25.3,4.7-34.9,13.4c-8.7,8.1-14.5,19.4-14.5,31.9s5.8,24,14.5,32.1
			c16.8,15.3,41.7,18.2,62.4,6.9L58.9,71.8H86l23.1,19c6-7.4,9.3-17.6,9.3-27.5C118.4,50.8,112.6,39.5,103.9,31.4L103.9,31.4z"/>
		<path class="st0" d="M226.5,88V1.8h19.8v86.4c0,13.6,16.1,20.3,30.4,20.3c14.1,0,30.2-6.9,30.2-20.4V1.8h19.8v86.4
			c0,25-26.7,38.1-50,38.1C252.8,126.2,226.5,113.2,226.5,88z"/>
		<path class="st0" d="M490.3,88.7h-48.6c-5.2,11.3-12,26.1-16.3,36.3h-21.1L458.8,0h14.3l54.4,125h-20.9L490.3,88.7z M449.1,71.9
			h33.7l-16.7-43.6L449.1,71.9z"/>
		<path class="st0" d="M658.1,1.8c44.4,0,66.6,30.9,66.6,61.7S702.5,125,658.1,125h-48.6V1.8H658.1z M658.1,107.2
			c31.4,0,47.3-21.9,47.3-43.7s-15.9-43.9-47.3-43.9H629v87.6H658.1z"/>
		<path class="st0" d="M837.7,62.4h22.9c16.5,0,24.6-10.8,24.6-21.5c0-10.6-8.1-21.3-24.6-21.3h-30V125h-19.4V1.6h49.4
			c29.4,0,44.2,19.7,44.2,39.3c0,17.5-11.8,34-35.1,37.7l42.8,46.4h-25.4l-49.4-54.1V62.4z"/>
		<path class="st0" d="M1063.2,88.7h-48.6c-5.2,11.3-12,26.1-16.3,36.3h-21.1l54.4-125h14.3l54.4,125h-20.9L1063.2,88.7z
			 M1021.9,71.9h33.7L1039,28.4L1021.9,71.9z"/>
		<path class="st0" d="M1178.1,125V1.4l15.1,0.2l66.1,86.9V1.6h19.4V125h-15.5l-65.5-86.2V125H1178.1z"/>
		<path class="st0" d="M1401.6,125.5v-106h-41.1v-18h101.5v18h-40.9v106H1401.6z"/>
		<path class="st0" d="M21.1,216.1c9.5-8.9,22.1-13.8,35.1-13.7c23.2,0,41.5,13.2,47.3,34.1H89c-5.4-13.9-17.8-20.9-32.8-20.9
			c-9.3,0-18.2,3.5-25,9.9c-13.1,11.9-14,32.1-2.1,45.1c0.7,0.7,1.4,1.5,2.1,2.1c6.8,6.4,15.7,9.9,25,9.9c15.4,0,28.4-8,33.6-22
			h14.4c-5.8,21-24.4,35.2-48,35.2c-13,0.1-25.6-4.8-35.1-13.7c-8.7-8.4-14.5-20.1-14.5-32.9C6.6,236.1,12.4,224.5,21.1,216.1z"/>
		<path class="st0" d="M188.1,248.3h17.1c12.3,0,18.4-8.1,18.4-16.1s-6.1-16-18.4-16h-22.5v78.9h-14.5v-92.4h37
			c22.1,0,33.1,14.8,33.1,29.4c0,13.1-8.9,25.5-26.3,28.2l32.1,34.7h-19l-37-40.5L188.1,248.3z"/>
		<path class="st0" d="M313.6,215.5c20.9-18.7,52.4-18.7,73.3,0c9.1,8.6,15.1,20.3,15.1,33.4s-5.9,24.8-15.1,33.4
			c-20.9,18.7-52.4,18.7-73.3,0c-9.1-8.6-15.1-20.3-15.1-33.4S304.4,224.1,313.6,215.5z M376.4,225c-7.2-6.5-16.6-10-26.2-10
			c-9.6-0.1-18.9,3.5-26,10c-13.2,11.5-14.6,31.5-3.1,44.7c1,1.1,2,2.1,3.1,3.1c7.1,6.5,16.4,10.1,26,10c9.7,0,19-3.5,26.2-10
			c13.2-11.7,14.4-31.9,2.7-45.1C378.2,226.8,377.3,225.9,376.4,225z"/>
		<path class="st0" d="M523,226.6c-2-8.3-11.9-11.9-20.7-11.8c-6.8,0.1-14.4,2.2-18.4,7c-2,2.4-2.9,5.5-2.5,8.6
			c0.7,9.5,12.2,10.7,23.1,11.6c13.9,1.6,31.2,4.9,35.1,19.7c0.5,2,0.7,4,0.7,6.1c0,17.8-19.4,28.1-37.7,28.1
			c-15.7,0-34.7-8.4-36.6-24.9l-0.1-2.5l14.8-0.3l0.1,2v-0.5c1,8.6,12.5,13.1,21.9,13.1c10.9,0,22.8-5.5,22.8-15
			c0-1.1-0.2-2.1-0.4-3.2c-1.8-7-12.2-8.2-22.3-9.1c-15.8-1.4-34.4-4.6-36-23.9v0.1c-0.6-6.4,1.4-12.7,5.5-17.6
			c6.8-8.1,19-12.3,30.8-12.3c15.7,0,31.9,7.4,34.5,24.3L523,226.6z"/>
		<path class="st0" d="M660,226.6c-2-8.3-11.9-11.9-20.8-11.8c-6.8,0.1-14.4,2.2-18.4,7c-2,2.4-2.9,5.5-2.5,8.6
			c0.7,9.5,12.2,10.7,23.1,11.6c13.9,1.6,31.2,4.9,35.1,19.7c0.4,2,0.7,4,0.7,6.1c0,17.8-19.4,28.1-37.7,28.1
			c-15.7,0-34.7-8.4-36.5-24.9l-0.2-2.5l14.8-0.3l0.1,2v-0.5c1,8.6,12.5,13.1,21.9,13.1c10.9,0,22.8-5.5,22.8-15
			c0-1.1-0.2-2.1-0.4-3.2c-1.7-7-12.2-8.2-22.3-9.1c-15.8-1.4-34.4-4.6-36-23.9v0.1c-0.6-6.4,1.4-12.7,5.5-17.6
			c6.8-8.1,19-12.3,30.8-12.3c15.7,0,31.9,7.4,34.5,24.3L660,226.6z"/>
	</g>
</g>
</svg>
