<svg xmlns="http://www.w3.org/2000/svg" xmlns:xlink="http://www.w3.org/1999/xlink" viewBox="0 0 575.86 723.82"><defs><style>.cls-1{fill:url(#linear-gradient);}.cls-2{fill:url(#linear-gradient-2);}.cls-3{fill:url(#linear-gradient-3);}.cls-4{fill:url(#linear-gradient-4);}.cls-5{fill:url(#linear-gradient-5);}.cls-6{fill:url(#linear-gradient-6);}.cls-7{fill:url(#linear-gradient-7);}.cls-8{fill:url(#linear-gradient-8);}.cls-9{fill:url(#linear-gradient-9);}.cls-10{fill:url(#linear-gradient-10);}.cls-11{fill:url(#linear-gradient-11);}.cls-12{fill:url(#linear-gradient-12);}.cls-13{fill:url(#linear-gradient-13);}.cls-14{fill:url(#linear-gradient-14);}.cls-15{fill:url(#linear-gradient-15);}.cls-16{fill:url(#linear-gradient-16);}</style><linearGradient id="linear-gradient" x1="287.98" y1="339.26" x2="287.98" y2="915.12" gradientTransform="translate(0 -339.26)" gradientUnits="userSpaceOnUse"><stop offset="0" stop-color="#ffd245"/><stop offset="1" stop-color="#e70600"/></linearGradient><linearGradient id="linear-gradient-2" x1="308.59" y1="862.28" x2="308.59" y2="447.02" gradientTransform="translate(0 -339.26)" gradientUnits="userSpaceOnUse"><stop offset="0" stop-color="#99ff17"/><stop offset="1" stop-color="#0b5100"/></linearGradient><linearGradient id="linear-gradient-3" x1="575.86" y1="627.19" x2="0" y2="627.19" xlink:href="#linear-gradient"/><linearGradient id="linear-gradient-4" x1="-81.95" y1="1559.6" x2="401.33" y2="1651.55" gradientTransform="translate(0 -938.3)" gradientUnits="userSpaceOnUse"><stop offset="0" stop-color="#ffd245"/><stop offset="0.81" stop-color="#e31e25"/></linearGradient><linearGradient id="linear-gradient-5" x1="-79.58" y1="1547.14" x2="403.69" y2="1639.08" xlink:href="#linear-gradient-4"/><linearGradient id="linear-gradient-6" x1="-78.04" y1="1538.98" x2="405.24" y2="1630.93" xlink:href="#linear-gradient-4"/><linearGradient id="linear-gradient-7" x1="-75.99" y1="1528.24" x2="407.31" y2="1620.18" xlink:href="#linear-gradient-4"/><linearGradient id="linear-gradient-8" x1="-73.88" y1="1517.14" x2="409.4" y2="1609.08" xlink:href="#linear-gradient-4"/><linearGradient id="linear-gradient-9" x1="-72.02" y1="1507.39" x2="411.25" y2="1599.34" xlink:href="#linear-gradient-4"/><linearGradient id="linear-gradient-10" x1="-69.79" y1="1495.65" x2="413.49" y2="1587.59" xlink:href="#linear-gradient-4"/><linearGradient id="linear-gradient-11" x1="-67.66" y1="1484.49" x2="415.61" y2="1576.43" xlink:href="#linear-gradient-4"/><linearGradient id="linear-gradient-12" x1="130.53" y1="1624.44" x2="380.8" y2="1706.47" gradientTransform="translate(0 -938.3)" gradientUnits="userSpaceOnUse"><stop offset="0" stop-color="#a4cd39"/><stop offset="1" stop-color="#225127"/></linearGradient><linearGradient id="linear-gradient-13" x1="134.44" y1="1612.51" x2="384.71" y2="1694.55" xlink:href="#linear-gradient-12"/><linearGradient id="linear-gradient-14" x1="139.1" y1="1598.29" x2="389.37" y2="1680.32" xlink:href="#linear-gradient-12"/><linearGradient id="linear-gradient-15" x1="143.55" y1="1584.72" x2="393.82" y2="1666.75" xlink:href="#linear-gradient-12"/><linearGradient id="linear-gradient-16" x1="147.54" y1="1572.55" x2="397.81" y2="1654.58" xlink:href="#linear-gradient-12"/></defs><g id="Layer_2" data-name="Layer 2"><g id="Layer_1-2" data-name="Layer 1"><g id="Layer_2-2" data-name="Layer 2"><g id="Layer_1-2-2" data-name="Layer 1-2"><path class="cls-1" d="M288,0c2.4,48,3.62,96,4.47,144,.53,24,.65,48,1,72l.31,72-.3,72c-.31,24-.42,48-.95,72-.8,48-2.1,96-4.49,144-2.4-48-3.65-96-4.49-144-.53-24-.64-48-1-72l-.29-72,.31-72c.31-24,.43-48,1-72C284.36,96,285.59,48,288,0Z"/><path class="cls-2" d="M512.16,111.82c-32.24,35.64-65.26,70.38-98.61,104.94-16.59,17.34-33.47,34.4-50.21,51.58l-50.67,51.08-51.13,50.67c-17.19,16.74-34.23,33.6-51.57,50.22-34.52,33.33-69.34,66.39-105,98.61,32.24-35.62,65.28-70.43,98.61-105,16.59-17.34,33.48-34.39,50.21-51.56l50.68-51.08,51.12-50.66c17.18-16.74,34.23-33.6,51.56-50.21C441.75,177.12,476.56,144.07,512.16,111.82Z"/><path class="cls-3" d="M575.86,287.93c-48,2.4-96,3.62-144,4.46-24,.54-48,.65-72,1l-72,.32-72-.3c-24-.32-48-.42-72-.95-48-.89-96-2.14-144-4.49,48-2.4,96-3.65,144-4.49,24-.53,48-.64,72-1l72-.3,72,.32c24,.31,48,.43,72,1C479.88,284.27,527.87,285.53,575.86,287.93Z"/></g></g><g id="Layer_2-3" data-name="Layer 2"><g id="Layer_1-2-3" data-name="Layer 1-2"><path class="cls-4" d="M112.21,672.36h-6.42L102,669.23c-9.08,5.46-21.12,4.46-27.49-2a19,19,0,0,1-6.08-13.38,18.37,18.37,0,0,1,6.05-13.37,22.05,22.05,0,0,1,29.39,0,18.45,18.45,0,0,1,6.05,13.37,17.84,17.84,0,0,1-4.46,11.6l6.74,5.79ZM99.58,644.24a15.36,15.36,0,0,0-10.47-4,15.6,15.6,0,0,0-10.48,4,12.77,12.77,0,0,0-1.2,18h0a13.59,13.59,0,0,0,1.2,1.2,16.17,16.17,0,0,0,18.72,2.07l-11.29-9.15h8.17l6.93,5.72a13.33,13.33,0,0,0,2.79-8.26A13.15,13.15,0,0,0,99.58,644.24Z"/><path class="cls-5" d="M136.37,661.24V635.35h5.94v25.94c0,4.08,4.83,6.09,9.14,6.09s9.06-2.09,9.06-6.14V635.35h5.94v25.94c0,7.52-8,11.44-15,11.44C144.28,672.72,136.37,668.81,136.37,661.24Z"/><path class="cls-6" d="M215.63,661.47H201c-1.57,3.39-3.61,7.83-4.89,10.91h-6.34l16.34-37.55h4.31l16.35,37.55H220.5Zm-12.39-5h10.12l-5-13.09Z"/><path class="cls-7" d="M266,635.35c13.38,0,20.06,9.26,20.06,18.53s-6.68,18.48-20.06,18.48H251.42v-37ZM266,667c9.43,0,14.2-6.57,14.2-13.13s-4.75-13.22-14.2-13.22H257.3V667Z"/><path class="cls-8" d="M320,653.56h6.86c5,0,7.39-3.23,7.39-6.46s-2.44-6.41-7.39-6.41h-9v31.67H312V635.29h14.86c8.84,0,13.27,6,13.27,11.81,0,5.24-3.55,10.22-10.53,11.33l12.86,13.93h-7.63L320,656.1Z"/><path class="cls-9" d="M387.71,661.47h-14.6c-1.58,3.39-3.61,7.83-4.89,10.91h-6.36l16.34-37.55h4.31l16.35,37.55h-6.29Zm-12.4-5h10.13l-5-13.1Z"/><path class="cls-10" d="M422.23,672.36V635.21l4.53,0,19.84,26.1V635.29h5.83v37.07h-4.66L428.1,646.47v25.89Z"/><path class="cls-11" d="M489.38,672.52V640.66H477v-5.4h30.46v5.4H495.23v31.83Z"/><path class="cls-12" d="M191.55,699.72a15.52,15.52,0,0,1,10.56-4.13c7,0,12.46,4,14.2,10.23H212c-1.62-4.16-5.36-6.27-9.85-6.27a10.86,10.86,0,0,0-7.49,3A9.59,9.59,0,0,0,194,716.1h0a7.38,7.38,0,0,0,.63.62,10.86,10.86,0,0,0,7.49,3c4.62,0,8.55-2.43,10.11-6.63h4.31c-1.73,6.31-7.31,10.59-14.42,10.59a15.21,15.21,0,0,1-10.57-4.13,13.47,13.47,0,0,1-.8-19c.26-.28.52-.55.8-.8Z"/><path class="cls-13" d="M241.71,709.39h5.2c3.72,0,5.54-2.41,5.54-4.84s-1.82-4.8-5.54-4.8h-6.77v23.72h-4.37V695.71h11.14c6.63,0,9.94,4.46,9.94,8.84,0,3.93-2.66,7.66-7.88,8.49l9.65,10.4h-5.76l-11.15-12.18Z"/><path class="cls-14" d="M279.41,699.55a16.53,16.53,0,0,1,22,0,13.38,13.38,0,0,1,1.19,18.88h0a12,12,0,0,1-1.18,1.18,16.48,16.48,0,0,1-22,0,13.37,13.37,0,0,1-1.19-18.87h0A13.36,13.36,0,0,1,279.41,699.55Zm18.87,2.89a11.84,11.84,0,0,0-7.89-3,11.5,11.5,0,0,0-7.81,3,9.51,9.51,0,0,0-.93,13.38,9.18,9.18,0,0,0,.94.93,11.49,11.49,0,0,0,7.8,3,11.8,11.8,0,0,0,7.89-3,9.6,9.6,0,0,0,.82-13.54l0,0C298.83,702.93,298.56,702.68,298.28,702.44Z"/><path class="cls-15" d="M342.33,702.89c-.61-2.5-3.57-3.57-6.23-3.53a7.46,7.46,0,0,0-5.54,2.1,3.41,3.41,0,0,0-.74,2.57c.22,2.86,3.66,3.22,6.93,3.5,4.18.47,9.37,1.48,10.54,5.94a8.64,8.64,0,0,1,.23,1.82c0,5.36-5.84,8.45-11.34,8.45-4.71,0-10.4-2.54-11-7.5l0-.74,4.46-.08,0,.59v-.15c.31,2.57,3.72,3.92,6.58,3.92,3.27,0,6.84-1.67,6.84-4.52a3.4,3.4,0,0,0-.13-1c-.52-2.1-3.66-2.46-6.68-2.74-4.76-.43-10.34-1.38-10.81-7.18v.05a7,7,0,0,1,1.65-5.28c2.05-2.42,5.71-3.71,9.24-3.71,4.71,0,9.59,2.22,10.4,7.29Z"/><path class="cls-16" d="M383.46,702.89c-.61-2.5-3.57-3.57-6.23-3.53a7.49,7.49,0,0,0-5.54,2.1A3.37,3.37,0,0,0,371,704c.21,2.86,3.65,3.22,6.92,3.5,4.19.47,9.37,1.48,10.55,5.94a9.33,9.33,0,0,1,.22,1.82c0,5.36-5.84,8.45-11.33,8.45-4.71,0-10.4-2.54-11-7.5l-.05-.74,4.46-.08.05.59v-.15c.3,2.57,3.71,3.92,6.58,3.92,3.27,0,6.84-1.67,6.84-4.52a4.35,4.35,0,0,0-.13-1c-.52-2.1-3.67-2.46-6.69-2.74-4.75-.43-10.33-1.38-10.81-7.18v.05a7,7,0,0,1,1.66-5.28c2.05-2.42,5.7-3.71,9.23-3.71,4.71,0,9.59,2.22,10.4,7.29Z"/></g></g></g></g></svg>