<svg xmlns="http://www.w3.org/2000/svg" viewBox="0 0 720 720"><defs><style>.cls-1{fill:#fff;}</style></defs><g id="Layer_2" data-name="Layer 2"><g id="Layer_1-2" data-name="Layer 1"><g id="Layer_2-2" data-name="Layer 2"><g id="Layer_1-2-2" data-name="Layer 1-2"><path class="cls-1" d="M360.06,0c3,60,4.53,120,5.59,180,.66,30,.81,60,1.2,90l.39,90-.37,90c-.4,30-.53,60-1.2,90-1,60-2.62,120-5.61,180-3-60-4.56-120-5.61-180-.67-30-.8-60-1.2-90l-.37-90,.39-90c.39-30,.54-60,1.2-90C355.53,120,357.08,60,360.06,0Z"/><path class="cls-1" d="M640.36,139.81c-40.31,44.56-81.6,88-123.3,131.21-20.74,21.68-41.85,43-62.78,64.48l-63.35,63.87L327,462.73c-21.49,20.93-42.79,42-64.48,62.79-43.16,41.67-86.69,83-131.22,123.29,40.3-44.54,81.62-88.06,123.29-131.23,20.74-21.68,41.86-43,62.78-64.47l63.36-63.86,63.91-63.35c21.48-20.93,42.8-42,64.47-62.78C552.32,221.45,595.84,180.13,640.36,139.81Z"/><path class="cls-1" d="M720,360c-60,3-120,4.53-180,5.58-30,.67-60,.81-90,1.2l-90,.4-90-.38c-30-.4-60-.52-90-1.19C120,364.5,60,362.94,0,360c60-3,120-4.56,180-5.61,30-.67,60-.8,90-1.2l90-.38,90,.4c30,.39,60,.54,90,1.2C600,355.42,660,357,720,360Z"/></g></g></g></g></svg>