<svg xmlns="http://www.w3.org/2000/svg" xmlns:xlink="http://www.w3.org/1999/xlink" viewBox="0 0 720 720"><defs><style>.cls-1{fill:url(#linear-gradient);}.cls-2{fill:#fff;}</style><linearGradient id="linear-gradient" x1="124.55" y1="79.41" x2="587.37" y2="630.97" gradientUnits="userSpaceOnUse"><stop offset="0" stop-color="#e9a900"/><stop offset="1" stop-color="#e95400"/></linearGradient></defs><g id="Layer_2" data-name="Layer 2"><g id="Layer_1-2" data-name="Layer 1"><circle class="cls-1" cx="360" cy="360" r="360"/><g id="Layer_2-2" data-name="Layer 2"><g id="Layer_1-2-2" data-name="Layer 1-2"><path class="cls-2" d="M360.05,69.33c2.42,48.45,3.66,96.89,4.51,145.34.53,24.22.66,48.44,1,72.67l.32,72.67-.3,72.66c-.33,24.23-.43,48.45-1,72.67-.81,48.45-2.12,96.89-4.53,145.34-2.42-48.45-3.68-96.89-4.53-145.34-.54-24.22-.65-48.44-1-72.67l-.3-72.66.32-72.67c.31-24.23.43-48.45,1-72.67C356.39,166.22,357.64,117.78,360.05,69.33Z"/><path class="cls-2" d="M586.37,182.22c-32.55,36-65.89,71.05-99.56,105.94-16.74,17.51-33.79,34.72-50.69,52.06L385,391.79,333.35,443c-17.35,16.9-34.55,33.91-52.06,50.7-34.85,33.65-70,67-106,99.55,32.54-36,65.9-71.1,99.55-106,16.74-17.51,33.8-34.72,50.69-52.06l51.16-51.56,51.6-51.15c17.34-16.9,34.56-33.91,52.06-50.69C515.28,248.14,550.42,214.77,586.37,182.22Z"/><path class="cls-2" d="M650.67,360c-48.44,2.42-96.89,3.65-145.33,4.5-24.23.54-48.45.65-72.67,1L360,365.8l-72.67-.3c-24.22-.33-48.44-.42-72.67-1-48.44-.89-96.89-2.15-145.33-4.52,48.44-2.43,96.89-3.69,145.33-4.53,24.23-.55,48.45-.65,72.67-1L360,354.2l72.67.32c24.22.32,48.44.44,72.67,1C553.78,356.31,602.23,357.58,650.67,360Z"/></g></g></g></g></svg>