<svg xmlns="http://www.w3.org/2000/svg" xmlns:xlink="http://www.w3.org/1999/xlink" viewBox="0 0 591.03 119.77"><defs><style>.cls-1{fill:url(#linear-gradient);}.cls-2{fill:url(#linear-gradient-2);}.cls-3{fill:url(#linear-gradient-3);}.cls-4{fill:url(#linear-gradient-4);}.cls-5{fill:url(#linear-gradient-5);}.cls-6{fill:url(#linear-gradient-6);}.cls-7{fill:url(#linear-gradient-7);}.cls-8{fill:url(#linear-gradient-8);}.cls-9{fill:url(#linear-gradient-9);}.cls-10{fill:url(#linear-gradient-10);}.cls-11{fill:url(#linear-gradient-11);}.cls-12{fill:url(#linear-gradient-12);}.cls-13{fill:url(#linear-gradient-13);}</style><linearGradient id="linear-gradient" x1="-202.33" y1="159.91" x2="448.12" y2="36.16" gradientTransform="matrix(1, 0, 0, -1, 0, 141.7)" gradientUnits="userSpaceOnUse"><stop offset="0" stop-color="#ffd245"/><stop offset="0.81" stop-color="#e31e25"/></linearGradient><linearGradient id="linear-gradient-2" x1="-199.14" y1="176.69" x2="451.31" y2="52.94" xlink:href="#linear-gradient"/><linearGradient id="linear-gradient-3" x1="-197.06" y1="187.66" x2="453.39" y2="63.91" xlink:href="#linear-gradient"/><linearGradient id="linear-gradient-4" x1="-194.3" y1="202.13" x2="456.15" y2="78.38" xlink:href="#linear-gradient"/><linearGradient id="linear-gradient-5" x1="-191.46" y1="217.07" x2="458.99" y2="93.32" xlink:href="#linear-gradient"/><linearGradient id="linear-gradient-6" x1="-188.97" y1="230.18" x2="461.48" y2="106.43" xlink:href="#linear-gradient"/><linearGradient id="linear-gradient-7" x1="-185.96" y1="245.99" x2="464.49" y2="122.24" xlink:href="#linear-gradient"/><linearGradient id="linear-gradient-8" x1="-183.1" y1="261.01" x2="467.35" y2="137.26" xlink:href="#linear-gradient"/><linearGradient id="linear-gradient-9" x1="-73.64" y1="72.65" x2="263.2" y2="-37.76" gradientTransform="matrix(1, 0, 0, -1, 0, 141.7)" gradientUnits="userSpaceOnUse"><stop offset="0" stop-color="#a4cd39"/><stop offset="1" stop-color="#225127"/></linearGradient><linearGradient id="linear-gradient-10" x1="-68.38" y1="88.69" x2="268.46" y2="-21.72" xlink:href="#linear-gradient-9"/><linearGradient id="linear-gradient-11" x1="-62.11" y1="107.84" x2="274.73" y2="-2.57" xlink:href="#linear-gradient-9"/><linearGradient id="linear-gradient-12" x1="-56.12" y1="126.11" x2="280.72" y2="15.7" xlink:href="#linear-gradient-9"/><linearGradient id="linear-gradient-13" x1="-50.75" y1="142.49" x2="286.09" y2="32.08" xlink:href="#linear-gradient-9"/></defs><g id="Layer_2" data-name="Layer 2"><g id="Layer_1-2" data-name="Layer 1"><path class="cls-1" d="M59,50.51H50.36L45.19,46.3c-12.22,7.34-28.43,6-37-2.7C3.36,38.82,0,32.6,0,25.6a24.77,24.77,0,0,1,8.14-18,29.7,29.7,0,0,1,39.56,0,24.77,24.77,0,0,1,8.14,18,24,24,0,0,1-6,15.61L58.92,49ZM42,12.66a20.71,20.71,0,0,0-14.1-5.41,21,21,0,0,0-14.1,5.41,17.19,17.19,0,0,0-1.61,24.26,17.47,17.47,0,0,0,1.61,1.61A21.76,21.76,0,0,0,39,41.31L23.8,29h11l9.32,7.7a18,18,0,0,0,3.76-11.12A17.73,17.73,0,0,0,42,12.66Z"/><path class="cls-2" d="M91.51,35.54V.69h8V35.61c0,5.49,6.5,8.2,12.3,8.2S124,41,124,35.54V.69h8V35.61c0,10.12-10.81,15.4-20.2,15.4C102.16,51,91.51,45.73,91.51,35.54Z"/><path class="cls-3" d="M198.19,35.85H178.53c-2.12,4.56-4.86,10.54-6.58,14.68h-8.54L185.41,0h5.8l22,50.53h-8.46Zm-16.68-6.77h13.62L188.4,11.47Z"/><path class="cls-4" d="M266,.69C284,.69,293,13.16,293,25.63S284,50.51,266,50.51H246.36V.69Zm0,42.62c12.69,0,19.11-8.84,19.11-17.68S278.71,7.85,266,7.85H254.27V43.27Z"/><path class="cls-5" d="M338.63,25.21h9.24c6.66,0,9.95-4.35,9.95-8.7s-3.29-8.62-9.95-8.62H335.73V50.51H327.9V.62h20c11.9,0,17.86,8,17.86,15.89,0,7.06-4.78,13.76-14.18,15.25l17.31,18.75H358.63l-20-21.88Z"/><path class="cls-6" d="M429.8,35.85H410.14c-2.12,4.56-4.86,10.54-6.58,14.68H395L417,0h5.8l22,50.53h-8.46Zm-16.69-6.77h13.63L420,11.45Z"/><path class="cls-7" d="M476.25,50.51V.51l6.11.07,26.7,35.13V.62h7.84V50.51h-6.27L484.16,15.66V50.51Z"/><path class="cls-8" d="M566.63,50.72V7.85H550V.58h41V7.85H574.51V50.68Z"/><path class="cls-9" d="M8.49,87.33a20.83,20.83,0,0,1,14.2-5.55c9.38,0,16.77,5.33,19.12,13.77H36c-2.18-5.61-7.22-8.44-13.26-8.44a14.63,14.63,0,0,0-10.09,4,12.93,12.93,0,0,0-.84,18.27c.26.29.55.57.84.84a14.63,14.63,0,0,0,10.09,4c6.22,0,11.5-3.26,13.61-8.92h5.8c-2.34,8.49-9.85,14.26-19.41,14.26A20.56,20.56,0,0,1,8.51,114,18.13,18.13,0,0,1,7.44,88.39c.34-.37.7-.73,1.07-1.07Z"/><path class="cls-10" d="M76,100.35h7c5,0,7.45-3.25,7.45-6.51S88,87.38,83,87.38H73.88V119.3H68V81.94H83c8.92,0,13.37,6,13.37,11.9,0,5.28-3.58,10.3-10.61,11.42l13,14H91L76,102.87Z"/><path class="cls-11" d="M126.73,87.11a22.24,22.24,0,0,1,29.62,0,18,18,0,0,1,1.59,25.41,18.35,18.35,0,0,1-1.59,1.59,22.22,22.22,0,0,1-29.62,0,18,18,0,0,1-1.59-25.41A18.35,18.35,0,0,1,126.73,87.11ZM152.13,91a15.89,15.89,0,0,0-10.62-4.06A15.5,15.5,0,0,0,131,91,12.8,12.8,0,0,0,129.75,109a12.49,12.49,0,0,0,1.26,1.26,15.5,15.5,0,0,0,10.5,4.06,15.89,15.89,0,0,0,10.62-4.06A12.91,12.91,0,0,0,153.21,92,13.76,13.76,0,0,0,152.13,91Z"/><path class="cls-12" d="M211.42,91.6c-.82-3.37-4.81-4.81-8.39-4.75-2.76,0-5.81.9-7.45,2.83a4.6,4.6,0,0,0-1,3.46c.3,3.85,4.93,4.33,9.33,4.7,5.63.64,12.61,2,14.19,8a11.25,11.25,0,0,1,.3,2.45c0,7.21-7.86,11.37-15.25,11.37-6.34,0-14-3.42-14.78-10.09l-.06-1,6-.11.06.8v-.21c.41,3.47,5,5.28,8.86,5.28,4.39,0,9.2-2.24,9.2-6.08a5.06,5.06,0,0,0-.17-1.28c-.71-2.83-4.93-3.31-9-3.69-6.4-.58-13.91-1.86-14.55-9.66v.06a9.46,9.46,0,0,1,2.23-7.1c2.75-3.26,7.68-5,12.43-5,6.34,0,12.91,3,14,9.82Z"/><path class="cls-13" d="M266.78,91.6c-.82-3.37-4.81-4.81-8.39-4.75-2.75,0-5.8.9-7.45,2.83a4.52,4.52,0,0,0-1,3.46c.29,3.85,4.92,4.33,9.32,4.7,5.63.64,12.61,2,14.2,8a12.71,12.71,0,0,1,.29,2.45c0,7.21-7.86,11.37-15.25,11.37-6.34,0-14-3.42-14.78-10.09l-.06-1,6-.11.06.8v-.21c.41,3.47,5,5.28,8.86,5.28,4.4,0,9.21-2.24,9.21-6.08a5.56,5.56,0,0,0-.18-1.28c-.7-2.83-4.93-3.31-9-3.69-6.4-.58-13.9-1.86-14.55-9.66v.06a9.46,9.46,0,0,1,2.23-7.1c2.76-3.26,7.68-5,12.43-5,6.34,0,12.91,3,14,9.82Z"/></g></g></svg>